<svg x="0px" y="0px" width="560px" height="350px" viewBox="0 0 560 350" enable-background="new 0 0 560 350" xml:space="preserve">
<path fill="#FBF9F6" d="M417.469,287.926c46.223-26.877,76.51-66.524,110.081-106.117c34.623-40.834,24.567-86.862,24.666-135.814
	c0.008-4.091-0.136-8.598-2.89-11.623c-1.81-1.988-4.451-2.97-7.008-3.802c-29.728-9.671-61.76-8.334-92.988-6.897
	c-35.488,1.634-70.976,3.268-106.464,4.902c-102.099,4.701-204.198,9.402-306.297,14.103c-10.146,0.467-21.937,1.855-27.244,10.515
	C6.26,58.194,6.244,64.446,6.741,70.29c3.364,39.603,25.382,74.84,46.785,108.331C87.7,232.095,125.493,288.673,184.279,312.58
	c16.65,6.771,34.385,10.593,52.231,12.731C298.742,332.766,363.285,319.431,417.469,287.926z"></path>
</svg>